<?xml version="1.0" standalone="no"?>
<!DOCTYPE svg PUBLIC "-//W3C//DTD SVG 20010904//EN"
 "http://www.w3.org/TR/2001/REC-SVG-20010904/DTD/svg10.dtd">
<svg version="1.0" xmlns="http://www.w3.org/2000/svg"
 width="260.000000pt" height="260.000000pt" viewBox="0 0 260.000000 260.000000"
 preserveAspectRatio="xMidYMid meet">
<metadata>
Created by potrace 1.14, written by Peter Selinger 2001-2017
</metadata>
<g transform="translate(0.000000,260.000000) scale(0.100000,-0.100000)"
fill="#000000" stroke="none">
<path d="M1025 2580 c-477 -108 -853 -500 -962 -1002 -25 -117 -25 -419 0
-536 85 -390 331 -718 667 -891 115 -59 207 -93 320 -117 120 -26 400 -26 520
0 495 107 875 497 987 1008 25 117 25 419 0 536 -110 504 -488 896 -967 1003
-119 26 -448 26 -565 -1z m525 -79 c473 -107 820 -468 926 -963 25 -114 25
-342 0 -456 -82 -383 -305 -686 -626 -851 -194 -99 -337 -135 -540 -135 -203
0 -346 36 -540 135 -321 165 -544 468 -626 851 -25 114 -25 342 0 456 82 383
305 686 626 851 143 74 254 109 425 135 62 9 273 -4 355 -23z"/>
<path d="M833 2052 c-132 -47 -193 -142 -193 -300 1 -92 23 -163 70 -224 18
-23 100 -101 182 -173 215 -188 248 -233 248 -340 0 -108 -49 -165 -143 -165
-58 0 -98 19 -131 62 -26 35 -56 124 -56 167 0 52 -11 56 -91 34 l-74 -20 2
-59 c3 -129 72 -243 180 -296 63 -31 74 -33 168 -33 85 1 107 4 150 25 131 64
194 201 167 361 -23 133 -69 197 -279 384 -86 77 -170 157 -187 178 -29 36
-31 44 -31 119 0 79 0 80 37 114 35 31 43 34 100 34 44 0 72 -6 94 -19 40 -24
74 -94 81 -166 7 -63 6 -63 103 -36 l65 18 -4 38 c-5 66 -40 162 -74 207 -52
68 -125 100 -239 105 -73 3 -104 0 -145 -15z"/>
<path d="M1640 1928 c-1 -73 -1 -313 0 -533 0 -220 0 -464 0 -542 l0 -143 265
0 265 0 0 70 0 70 -175 0 -175 0 0 605 0 605 -90 0 -90 0 0 -132z"/>
</g>
</svg>
